<svg width="207" height="77" viewBox="0 0 207 77" fill="none" xmlns="http://www.w3.org/2000/svg">
<g clip-path="url(#clip0_211_2)">
<path fill-rule="evenodd" clip-rule="evenodd" d="M91.87 22.16V54.79H87.21V18.35H115.6V22.16H91.87ZM95.68 34.03V37.84H113.05V34.03H95.68ZM120.69 18.77H125.35V54.79H120.69V18.77ZM129.6 18.35H135.11L151.63 46.74L167.73 18.35H173.66L151.63 54.79L129.6 18.35ZM177.67 18.77H205.64V22.58H182.34V51.39H206.07V54.78H177.68V18.77H177.67ZM186.15 34.45V38.26H203.1V34.45H186.15Z" fill="white"/>
<path fill-rule="evenodd" clip-rule="evenodd" d="M163.06 70.63L164.13 62.47H168.71L168.57 63.62H165.26L165 65.67H168.3L168.15 66.81H164.84L164.5 69.45H167.81L167.65 70.63H163.07H163.06ZM168.6 70.63H169.8L170.38 66.09C170.38 66.09 170.39 66.03 170.4 65.97C170.47 65.45 170.5 65.06 170.51 64.81C170.6 64.95 170.71 65.11 170.83 65.26C170.95 65.42 171.11 65.61 171.31 65.84L175.78 70.94L176.88 62.46H175.68L175.07 67C175.03 67.29 175.01 67.53 174.99 67.72C174.97 67.91 174.97 68.09 174.97 68.26C174.86 68.1 174.74 67.93 174.61 67.77C174.48 67.6 174.34 67.42 174.17 67.24L169.72 62.14L168.62 70.62L168.6 70.63ZM176.98 70.63L178.05 62.47H182.63L182.49 63.62H179.18L178.92 65.67H182.22L182.07 66.81H178.76L178.42 69.45H181.73L181.57 70.63H176.99H176.98ZM183.78 70.63L184.25 67.14H184.54L186.7 70.63H188.13L185.88 67.09C186.55 66.98 187.07 66.71 187.44 66.29C187.81 65.87 187.99 65.32 187.99 64.64C187.99 64.29 187.92 63.97 187.79 63.68C187.66 63.39 187.47 63.15 187.22 62.96C187 62.78 186.74 62.66 186.46 62.58C186.17 62.51 185.71 62.47 185.06 62.47H183.59L182.52 70.63H183.79H183.78ZM184.37 66.1L184.7 63.63H184.91C185.62 63.63 186.09 63.71 186.33 63.88C186.57 64.05 186.7 64.34 186.7 64.76C186.7 65.25 186.56 65.6 186.26 65.8C185.97 66 185.42 66.1 184.62 66.1H184.36H184.37ZM195.54 64.78C195.18 64.32 194.78 63.97 194.35 63.75C193.91 63.52 193.42 63.41 192.88 63.41C192.45 63.41 192.04 63.49 191.66 63.64C191.28 63.8 190.94 64.02 190.65 64.32C190.32 64.66 190.07 65.04 189.9 65.47C189.72 65.9 189.64 66.34 189.64 66.81C189.64 67.67 189.9 68.36 190.42 68.89C190.94 69.42 191.63 69.68 192.48 69.68C193.16 69.68 193.73 69.49 194.19 69.12C194.65 68.74 194.92 68.25 195 67.64H192.89L193.03 66.48H196.51C196.51 67.83 196.14 68.89 195.41 69.67C194.68 70.45 193.68 70.84 192.41 70.84C191.14 70.84 190.21 70.48 189.48 69.75C188.74 69.03 188.37 68.06 188.37 66.86C188.37 66.19 188.49 65.57 188.72 64.99C188.95 64.41 189.29 63.92 189.72 63.5C190.14 63.1 190.62 62.8 191.17 62.59C191.72 62.38 192.31 62.27 192.94 62.27C193.69 62.27 194.34 62.4 194.89 62.66C195.44 62.92 195.96 63.34 196.45 63.93L195.55 64.79L195.54 64.78ZM196.8 70.63L197.87 62.47H199.17L198.08 70.63H196.79H196.8ZM198.27 70.63H199.66L200.74 68.7H203.99L204.65 70.63H205.98L203 62.15L198.28 70.63H198.27ZM201.25 67.61L202.31 65.61C202.39 65.46 202.47 65.3 202.55 65.12C202.63 64.95 202.71 64.76 202.79 64.57C202.84 64.83 202.88 65.04 202.91 65.2C202.94 65.36 202.98 65.49 203 65.58L203.63 67.6H201.24L201.25 67.61Z" fill="white"/>
<path fill-rule="evenodd" clip-rule="evenodd" d="M15 35.33L28.52 45.09L18.27 76.22L20.99 42.68L14.99 35.33H15ZM63.21 31.97L46.53 32L36.57 0.779999L54.05 29.54L63.22 31.97H63.21ZM55.99 60.93L55.45 51.46L77.36 25.91L50.78 45.08L55.99 60.92V60.93ZM37.83 16.11L32.72 24.1L0 31.98L32.77 32L37.82 16.1L37.83 16.11ZM26.16 63.02L35.1 59.63L66.29 72.55L39.66 53.17L26.16 63.02Z" fill="#FFCB05"/>
</g>
<defs>
<clipPath id="clip0_211_2">
<rect width="206.06" height="75.44" fill="white" transform="translate(0 0.779999)"/>
</clipPath>
</defs>
</svg>
