<svg width="205" height="75" viewBox="0 0 205 75" fill="none" xmlns="http://www.w3.org/2000/svg">
<g clip-path="url(#clip0_211_8)">
<path fill-rule="evenodd" clip-rule="evenodd" d="M91.3341 21.2551V53.6947H86.7013V17.4673H114.926V21.2551H91.3341ZM95.1219 33.0558V36.8436H112.391V33.0558H95.1219ZM119.986 17.8848H124.619V53.6947H119.986V17.8848ZM128.844 17.4673H134.322L150.746 45.6917L166.752 17.4673H172.647L150.746 53.6947L128.844 17.4673ZM176.634 17.8848H204.441V21.6726H181.276V50.3146H204.868V53.6848H176.644V17.8848H176.634ZM185.064 33.4734V37.2612H201.915V33.4734H185.064Z" fill="black"/>
<path fill-rule="evenodd" clip-rule="evenodd" d="M162.109 69.4424L163.173 61.33H167.726L167.587 62.4733H164.296L164.038 64.5114H167.318L167.169 65.6447H163.879L163.541 68.2693H166.831L166.672 69.4424H162.119H162.109ZM167.617 69.4424H168.81L169.386 64.9289C169.386 64.9289 169.396 64.8693 169.406 64.8096C169.476 64.2926 169.506 63.9049 169.516 63.6564C169.605 63.7956 169.714 63.9546 169.834 64.1038C169.953 64.2628 170.112 64.4517 170.311 64.6804L174.755 69.7506L175.848 61.3201H174.655L174.049 65.8336C174.009 66.1219 173.989 66.3605 173.969 66.5494C173.95 66.7383 173.95 66.9173 173.95 67.0863C173.84 66.9272 173.721 66.7582 173.592 66.5991C173.462 66.4301 173.323 66.2512 173.154 66.0722L168.73 61.002L167.637 69.4325L167.617 69.4424ZM175.948 69.4424L177.012 61.33H181.565L181.426 62.4733H178.135L177.877 64.5114H181.157L181.008 65.6447H177.717L177.379 68.2693H180.67L180.511 69.4424H175.958H175.948ZM182.708 69.4424L183.175 65.9728H183.464L185.611 69.4424H187.033L184.796 65.9231C185.462 65.8137 185.979 65.5453 186.347 65.1277C186.715 64.7102 186.894 64.1634 186.894 63.4874C186.894 63.1394 186.824 62.8213 186.695 62.533C186.566 62.2447 186.377 62.0061 186.128 61.8172C185.909 61.6382 185.651 61.5189 185.373 61.4394C185.084 61.3698 184.627 61.33 183.981 61.33H182.519L181.456 69.4424H182.718H182.708ZM183.295 64.9389L183.623 62.4833H183.832C184.537 62.4833 185.005 62.5628 185.243 62.7318C185.482 62.9008 185.611 63.1891 185.611 63.6067C185.611 64.0938 185.472 64.4418 185.174 64.6406C184.885 64.8394 184.339 64.9389 183.543 64.9389H183.285H183.295ZM194.4 63.6266C194.042 63.1692 193.644 62.8213 193.217 62.6026C192.779 62.3739 192.292 62.2645 191.755 62.2645C191.328 62.2645 190.92 62.3441 190.542 62.4932C190.164 62.6523 189.826 62.871 189.538 63.1692C189.21 63.5073 188.961 63.885 188.792 64.3125C188.614 64.74 188.534 65.1775 188.534 65.6447C188.534 66.4997 188.792 67.1857 189.309 67.7126C189.826 68.2395 190.512 68.498 191.357 68.498C192.033 68.498 192.6 68.3091 193.057 67.9412C193.515 67.5635 193.783 67.0763 193.863 66.4699H191.765L191.904 65.3166H195.364C195.364 66.6588 194.996 67.7126 194.27 68.488C193.545 69.2635 192.55 69.6512 191.288 69.6512C190.025 69.6512 189.101 69.2933 188.375 68.5676C187.639 67.8518 187.271 66.8874 187.271 65.6944C187.271 65.0283 187.391 64.4119 187.619 63.8353C187.848 63.2587 188.186 62.7716 188.614 62.354C189.031 61.9564 189.508 61.6581 190.055 61.4493C190.602 61.2406 191.188 61.1312 191.815 61.1312C192.56 61.1312 193.207 61.2604 193.753 61.5189C194.3 61.7774 194.817 62.195 195.304 62.7815L194.41 63.6365L194.4 63.6266ZM195.652 69.4424L196.716 61.33H198.008L196.925 69.4424H195.642H195.652ZM197.114 69.4424H198.496L199.569 67.5237H202.8L203.456 69.4424H204.779L201.816 61.0119L197.124 69.4424H197.114ZM200.076 66.4401L201.13 64.4517C201.21 64.3026 201.289 64.1435 201.369 63.9646C201.448 63.7956 201.528 63.6067 201.607 63.4178C201.657 63.6763 201.697 63.885 201.727 64.0441C201.756 64.2032 201.796 64.3324 201.816 64.4219L202.442 66.4301H200.066L200.076 66.4401Z" fill="black"/>
<path fill-rule="evenodd" clip-rule="evenodd" d="M14.9125 34.3485L28.3537 44.0516L18.1634 75L20.8676 41.6556L14.9026 34.3485H14.9125ZM62.8413 31.0081L46.2586 31.0379L36.3567 0L53.7348 28.5923L62.8513 31.0081H62.8413ZM55.6634 59.7992L55.1266 50.3844L76.9088 24.9834L50.4838 44.0416L55.6634 59.7892V59.7992ZM37.6094 15.2406L32.5292 23.184L0 31.018L32.5789 31.0379L37.5994 15.2306L37.6094 15.2406ZM26.0074 61.877L34.8953 58.5068L65.9034 71.3514L39.4287 52.0844L26.0074 61.877Z" fill="black"/>
</g>
<defs>
<clipPath id="clip0_211_8">
<rect width="204.858" height="75" fill="white"/>
</clipPath>
</defs>
</svg>
