<svg width="83" height="83" viewBox="0 0 83 83" fill="none" xmlns="http://www.w3.org/2000/svg">
<rect x="0.803345" y="13.436" width="68.7604" height="68.7604" rx="7.90349" fill="#1E1E1E"/>
<rect x="56.1279" width="26.8719" height="26.8719" rx="5.59831" fill="#D9D9D9"/>
<path d="M15.4248 37.048L30.7378 48.5326C33.3724 50.5085 36.9947 50.5085 39.6292 48.5326L54.9423 37.0479" stroke="#D9D9D9" stroke-width="4.93968" stroke-linecap="round" stroke-linejoin="round"/>
<path d="M52.4724 32.1079H17.8946C15.1665 32.1079 12.955 34.3195 12.955 37.0476V61.746C12.955 64.4741 15.1665 66.6857 17.8946 66.6857H52.4724C55.2005 66.6857 57.4121 64.4741 57.4121 61.746V37.0476C57.4121 34.3195 55.2005 32.1079 52.4724 32.1079Z" stroke="#D9D9D9" stroke-width="4.93968" stroke-linecap="round"/>
<path d="M72.7581 14.9013V9.71462M72.7581 9.71462H67.5714M72.7581 9.71462L65.8427 16.6301M63.768 22.3931H74.8328C76.1239 22.3931 76.7694 22.3931 77.2625 22.1419C77.6962 21.9209 78.0489 21.5682 78.27 21.1345C78.5211 20.6414 78.5211 19.9959 78.5211 18.7048V7.63996C78.5211 6.34894 78.5211 5.70342 78.27 5.21031C78.0489 4.77656 77.6962 4.42391 77.2625 4.20291C76.7694 3.95166 76.1239 3.95166 74.8328 3.95166H63.768C62.477 3.95166 61.8315 3.95166 61.3384 4.20291C60.9046 4.42391 60.552 4.77656 60.331 5.21031C60.0797 5.70342 60.0797 6.34893 60.0797 7.63996V18.7048C60.0797 19.9959 60.0797 20.6414 60.331 21.1345C60.552 21.5682 60.9046 21.9209 61.3384 22.1419C61.8315 22.3931 62.477 22.3931 63.768 22.3931Z" stroke="black" stroke-width="2.30519" stroke-linecap="round" stroke-linejoin="round"/>
</svg>
