<svg width="83" height="83" viewBox="0 0 83 83" fill="none" xmlns="http://www.w3.org/2000/svg">
<rect x="0.2229" y="13.4355" width="68.7604" height="68.7604" rx="7.90349" fill="#1E1E1E"/>
<path d="M45.4364 26.8721H23.77C18.1864 26.8721 13.6589 31.3996 13.6589 36.9831V58.6496C13.6589 64.2331 18.1864 68.7606 23.77 68.7606H45.4364C51.0199 68.7606 55.5474 64.2331 55.5474 58.6496V36.9831C55.5474 31.3996 51.0199 26.8721 45.4364 26.8721ZM51.9364 57.9273C51.9364 61.9147 48.7016 65.1495 44.7142 65.1495H24.4922C20.5048 65.1495 17.27 61.9147 17.27 57.9273V37.7053C17.27 33.7179 20.5048 30.4831 24.4922 30.4831H44.7142C48.7016 30.4831 51.9364 33.7179 51.9364 37.7053V57.9273Z" fill="#D9D9D9"/>
<path d="M34.6213 36.9834C28.6433 36.9834 23.7881 41.8386 23.7881 47.8166C23.7881 53.7946 28.6433 58.6499 34.6213 58.6499C40.5993 58.6499 45.4546 53.7946 45.4546 47.8166C45.4546 41.8386 40.5993 36.9834 34.6213 36.9834ZM34.6213 55.0388C30.64 55.0388 27.3992 51.7979 27.3992 47.8166C27.3992 43.8353 30.64 40.5945 34.6213 40.5945C38.6026 40.5945 41.8435 43.8353 41.8435 47.8166C41.8435 51.7979 38.6026 55.0388 34.6213 55.0388Z" fill="#D9D9D9"/>
<path d="M46.183 38.4275C47.3796 38.4275 48.3497 37.4575 48.3497 36.2609C48.3497 35.0643 47.3796 34.0942 46.183 34.0942C44.9864 34.0942 44.0164 35.0643 44.0164 36.2609C44.0164 37.4575 44.9864 38.4275 46.183 38.4275Z" fill="#D9D9D9"/>
<rect x="55.5474" width="26.8719" height="26.8719" rx="5.59831" fill="#D9D9D9"/>
<path d="M72.1776 14.9013V9.71462M72.1776 9.71462H66.991M72.1776 9.71462L65.2622 16.6301M63.1876 22.3931H74.2524C75.5434 22.3931 76.189 22.3931 76.6821 22.1419C77.1158 21.9209 77.4685 21.5682 77.6896 21.1345C77.9407 20.6414 77.9407 19.9959 77.9407 18.7048V7.63996C77.9407 6.34894 77.9407 5.70342 77.6896 5.21031C77.4685 4.77656 77.1158 4.42391 76.6821 4.20291C76.189 3.95166 75.5434 3.95166 74.2524 3.95166H63.1876C61.8965 3.95166 61.251 3.95166 60.7579 4.20291C60.3242 4.42391 59.9715 4.77656 59.7505 5.21031C59.4993 5.70342 59.4993 6.34893 59.4993 7.63996V18.7048C59.4993 19.9959 59.4993 20.6414 59.7505 21.1345C59.9715 21.5682 60.3242 21.9209 60.7579 22.1419C61.251 22.3931 61.8965 22.3931 63.1876 22.3931Z" stroke="black" stroke-width="2.30519" stroke-linecap="round" stroke-linejoin="round"/>
</svg>
