<svg width="83" height="83" viewBox="0 0 83 83" fill="none" xmlns="http://www.w3.org/2000/svg">
<rect y="13.4363" width="68.7604" height="68.7604" rx="7.90349" fill="#1E1E1E"/>
<rect x="55.3247" width="26.8719" height="26.8719" rx="5.59831" fill="#D9D9D9"/>
<path d="M34.3799 28.3916C43.0961 28.3918 50.1865 35.483 50.1865 44.1992C50.1865 47.7947 49.0079 51.1821 46.7803 53.9912C43.9497 57.5608 35.7459 66.006 35.4033 66.3584L34.6631 67.1201L34.3799 67.4111L34.0957 67.1191L33.3564 66.3584C33.0169 66.0091 24.8123 57.5643 21.9814 53.9951C19.7519 51.1839 18.5723 47.7946 18.5723 44.1992C18.5723 35.4828 25.6635 28.3916 34.3799 28.3916ZM34.3799 31.2471C27.2384 31.2471 21.4277 37.0578 21.4277 44.1992C21.4278 47.1461 22.3918 49.9183 24.2178 52.2207C26.3751 54.9408 32.039 60.8755 34.3789 63.3066C36.7188 60.8757 42.3859 54.9391 44.5439 52.2178C46.368 49.9176 47.331 47.1465 47.3311 44.1992C47.3312 37.0579 41.5211 31.2472 34.3799 31.2471Z" fill="#D9D9D9" stroke="#D9D9D9" stroke-width="0.790349"/>
<path d="M34.3799 34.5098C39.6284 34.5099 43.8975 38.7799 43.8975 44.0283C43.8973 49.2766 39.6282 53.5457 34.3799 53.5459C29.1315 53.5459 24.8615 49.2768 24.8613 44.0283C24.8613 38.7797 29.1313 34.5098 34.3799 34.5098ZM34.3799 37.3652C30.7063 37.3652 27.7168 40.3546 27.7168 44.0283C27.7169 47.7018 30.7063 50.6914 34.3799 50.6914C38.0534 50.6913 41.0428 47.7018 41.043 44.0283C41.0429 40.3548 38.0533 37.3654 34.3799 37.3652Z" fill="#D9D9D9" stroke="#D9D9D9" stroke-width="0.790349"/>
<path d="M71.9542 14.9015V9.71487M71.9542 9.71487H66.7676M71.9542 9.71487L65.0388 16.6303M62.9642 22.3934H74.029C75.32 22.3934 75.9656 22.3934 76.4587 22.1421C76.8924 21.9212 77.2451 21.5685 77.4662 21.1348C77.7173 20.6417 77.7173 19.9961 77.7173 18.7051V7.6402C77.7173 6.34918 77.7173 5.70366 77.4662 5.21056C77.2451 4.7768 76.8924 4.42416 76.4587 4.20316C75.9656 3.9519 75.32 3.9519 74.029 3.9519H62.9642C61.6732 3.9519 61.0276 3.9519 60.5345 4.20316C60.1008 4.42416 59.7481 4.7768 59.5271 5.21056C59.2759 5.70366 59.2759 6.34917 59.2759 7.6402V18.7051C59.2759 19.9961 59.2759 20.6417 59.5271 21.1348C59.7481 21.5685 60.1008 21.9212 60.5345 22.1421C61.0276 22.3934 61.6732 22.3934 62.9642 22.3934Z" stroke="black" stroke-width="2.30519" stroke-linecap="round" stroke-linejoin="round"/>
</svg>
