<svg width="1357" height="79" viewBox="0 0 1357 79" fill="none" xmlns="http://www.w3.org/2000/svg">
<rect x="978" y="12" width="340" height="56.0583" rx="27.9903" fill="url(#paint0_linear_0_1)"/>
<rect x="978" y="12" width="340" height="56.0583" rx="27.9903" fill="black" fill-opacity="0.2"/>
<path d="M1019.43 33.917C1019.29 32.7881 1018.75 31.9117 1017.8 31.2878C1016.85 30.6639 1015.68 30.352 1014.3 30.352C1013.29 30.352 1012.41 30.5153 1011.65 30.8421C1010.9 31.1689 1010.31 31.6183 1009.89 32.1902C1009.47 32.7621 1009.26 33.412 1009.26 34.1398C1009.26 34.7489 1009.41 35.2725 1009.7 35.7107C1010 36.1415 1010.38 36.5017 1010.84 36.7913C1011.3 37.0736 1011.78 37.3075 1012.28 37.4932C1012.79 37.6715 1013.25 37.8163 1013.68 37.9277L1015.99 38.5516C1016.59 38.7076 1017.25 38.9229 1017.98 39.1978C1018.71 39.4726 1019.41 39.8476 1020.08 40.323C1020.76 40.7909 1021.32 41.3925 1021.75 42.1278C1022.19 42.8631 1022.41 43.7655 1022.41 44.835C1022.41 46.0679 1022.09 47.182 1021.44 48.1772C1020.8 49.1725 1019.87 49.9635 1018.63 50.5502C1017.41 51.137 1015.92 51.4304 1014.17 51.4304C1012.53 51.4304 1011.12 51.1667 1009.92 50.6394C1008.73 50.112 1007.8 49.3767 1007.11 48.4335C1006.44 47.4902 1006.06 46.3947 1005.97 45.1469H1008.82C1008.89 46.0085 1009.18 46.7215 1009.69 47.286C1010.2 47.843 1010.85 48.2589 1011.63 48.5338C1012.41 48.8011 1013.26 48.9348 1014.17 48.9348C1015.22 48.9348 1016.17 48.764 1017.01 48.4223C1017.85 48.0733 1018.51 47.5905 1019 46.974C1019.49 46.3502 1019.74 45.6223 1019.74 44.7904C1019.74 44.0329 1019.53 43.4164 1019.1 42.9411C1018.68 42.4657 1018.12 42.0795 1017.43 41.7824C1016.74 41.4853 1015.99 41.2254 1015.19 41.0026L1012.38 40.2004C1010.6 39.688 1009.19 38.9564 1008.15 38.0057C1007.11 37.055 1006.59 35.8109 1006.59 34.2735C1006.59 32.996 1006.94 31.882 1007.63 30.9313C1008.33 29.9732 1009.26 29.2304 1010.43 28.7031C1011.62 28.1684 1012.93 27.901 1014.39 27.901C1015.86 27.901 1017.17 28.1646 1018.31 28.692C1019.45 29.2119 1020.36 29.9249 1021.03 30.831C1021.71 31.7371 1022.06 32.7658 1022.1 33.917H1019.43ZM1033.55 51.3858C1032 51.3858 1030.65 51.0182 1029.48 50.2829C1028.32 49.5476 1027.42 48.5189 1026.76 47.1969C1026.12 45.8748 1025.79 44.33 1025.79 42.5623C1025.79 40.7798 1026.12 39.2238 1026.76 37.8943C1027.42 36.5648 1028.32 35.5324 1029.48 34.7971C1030.65 34.0618 1032 33.6942 1033.55 33.6942C1035.09 33.6942 1036.45 34.0618 1037.6 34.7971C1038.77 35.5324 1039.68 36.5648 1040.32 37.8943C1040.98 39.2238 1041.3 40.7798 1041.3 42.5623C1041.3 44.33 1040.98 45.8748 1040.32 47.1969C1039.68 48.5189 1038.77 49.5476 1037.6 50.2829C1036.45 51.0182 1035.09 51.3858 1033.55 51.3858ZM1033.55 49.024C1034.72 49.024 1035.69 48.7231 1036.45 48.1215C1037.2 47.5199 1037.76 46.7289 1038.13 45.7486C1038.49 44.7682 1038.67 43.7061 1038.67 42.5623C1038.67 41.4185 1038.49 40.3527 1038.13 39.3649C1037.76 38.377 1037.2 37.5786 1036.45 36.9696C1035.69 36.3606 1034.72 36.056 1033.55 36.056C1032.38 36.056 1031.41 36.3606 1030.65 36.9696C1029.89 37.5786 1029.33 38.377 1028.97 39.3649C1028.61 40.3527 1028.42 41.4185 1028.42 42.5623C1028.42 43.7061 1028.61 44.7682 1028.97 45.7486C1029.33 46.7289 1029.89 47.5199 1030.65 48.1215C1031.41 48.7231 1032.38 49.024 1033.55 49.024ZM1047.95 28.2129V51.0293H1045.32V28.2129H1047.95ZM1052.76 51.0293V33.917H1055.39V51.0293H1052.76ZM1054.1 31.065C1053.59 31.065 1053.14 30.8904 1052.77 30.5413C1052.41 30.1923 1052.23 29.7726 1052.23 29.2824C1052.23 28.7922 1052.41 28.3726 1052.77 28.0235C1053.14 27.6744 1053.59 27.4999 1054.1 27.4999C1054.61 27.4999 1055.05 27.6744 1055.41 28.0235C1055.78 28.3726 1055.97 28.7922 1055.97 29.2824C1055.97 29.7726 1055.78 30.1923 1055.41 30.5413C1055.05 30.8904 1054.61 31.065 1054.1 31.065ZM1067.16 51.3858C1065.55 51.3858 1064.17 51.007 1063.01 50.2494C1061.85 49.4919 1060.96 48.4483 1060.34 47.1189C1059.72 45.7894 1059.4 44.2705 1059.4 42.5623C1059.4 40.8243 1059.72 39.2906 1060.36 37.9611C1061.01 36.6242 1061.91 35.5807 1063.06 34.8306C1064.22 34.073 1065.57 33.6942 1067.11 33.6942C1068.32 33.6942 1069.4 33.917 1070.37 34.3626C1071.33 34.8083 1072.12 35.4322 1072.74 36.2343C1073.36 37.0364 1073.74 37.9723 1073.89 39.0418H1071.26C1071.06 38.2619 1070.61 37.5712 1069.92 36.9696C1069.24 36.3606 1068.32 36.056 1067.16 36.056C1066.13 36.056 1065.23 36.3234 1064.46 36.8582C1063.7 37.3855 1063.1 38.132 1062.67 39.0975C1062.24 40.0556 1062.03 41.1808 1062.03 42.4732C1062.03 43.7952 1062.24 44.9464 1062.66 45.9268C1063.08 46.9072 1063.67 47.6685 1064.44 48.2107C1065.21 48.7529 1066.12 49.024 1067.16 49.024C1067.84 49.024 1068.46 48.9051 1069.02 48.6674C1069.58 48.4298 1070.05 48.0881 1070.43 47.6425C1070.82 47.1969 1071.09 46.6621 1071.26 46.0382H1073.89C1073.74 47.0483 1073.37 47.9581 1072.78 48.7677C1072.2 49.5699 1071.44 50.2086 1070.48 50.6839C1069.53 51.1518 1068.42 51.3858 1067.16 51.3858ZM1077.73 51.0293V33.917H1080.36V51.0293H1077.73ZM1079.07 31.065C1078.55 31.065 1078.11 30.8904 1077.74 30.5413C1077.38 30.1923 1077.2 29.7726 1077.2 29.2824C1077.2 28.7922 1077.38 28.3726 1077.74 28.0235C1078.11 27.6744 1078.55 27.4999 1079.07 27.4999C1079.58 27.4999 1080.02 27.6744 1080.38 28.0235C1080.75 28.3726 1080.94 28.7922 1080.94 29.2824C1080.94 29.7726 1080.75 30.1923 1080.38 30.5413C1080.02 30.8904 1079.58 31.065 1079.07 31.065ZM1092.62 33.917V36.1452H1083.75V33.917H1092.62ZM1086.33 29.8172H1088.96V46.1273C1088.96 46.8701 1089.07 47.4271 1089.29 47.7985C1089.51 48.1624 1089.79 48.4075 1090.13 48.5338C1090.48 48.6526 1090.85 48.712 1091.24 48.712C1091.53 48.712 1091.76 48.6972 1091.95 48.6674C1092.13 48.6303 1092.28 48.6006 1092.39 48.5783L1092.93 50.9402C1092.75 51.007 1092.5 51.0739 1092.18 51.1407C1091.86 51.215 1091.46 51.2521 1090.97 51.2521C1090.23 51.2521 1089.5 51.0924 1088.78 50.7731C1088.08 50.4537 1087.49 49.9672 1087.02 49.3136C1086.56 48.66 1086.33 47.8356 1086.33 46.8404V29.8172ZM1103.56 51.3858C1101.91 51.3858 1100.49 51.0219 1099.3 50.294C1098.11 49.5587 1097.19 48.5338 1096.54 47.2191C1095.91 45.8971 1095.59 44.3597 1095.59 42.6068C1095.59 40.854 1095.91 39.3092 1096.54 37.9723C1097.19 36.6279 1098.09 35.5807 1099.24 34.8306C1100.4 34.073 1101.75 33.6942 1103.3 33.6942C1104.19 33.6942 1105.07 33.8427 1105.94 34.1398C1106.81 34.4369 1107.6 34.9197 1108.31 35.5881C1109.02 36.2492 1109.59 37.1256 1110.01 38.2174C1110.44 39.3092 1110.65 40.6535 1110.65 42.2503V43.3644H1097.46V41.0917H1107.98C1107.98 40.1262 1107.78 39.2646 1107.4 38.507C1107.02 37.7494 1106.47 37.1516 1105.77 36.7134C1105.07 36.2751 1104.25 36.056 1103.3 36.056C1102.25 36.056 1101.34 36.316 1100.58 36.8359C1099.82 37.3484 1099.24 38.0168 1098.83 38.8412C1098.42 39.6657 1098.22 40.5495 1098.22 41.4928V43.0079C1098.22 44.3002 1098.44 45.3958 1098.88 46.2945C1099.34 47.1857 1099.96 47.8653 1100.77 48.3332C1101.57 48.7937 1102.5 49.024 1103.56 49.024C1104.25 49.024 1104.88 48.9274 1105.43 48.7343C1106 48.5338 1106.49 48.2367 1106.89 47.843C1107.3 47.442 1107.62 46.9443 1107.84 46.3502L1110.38 47.0632C1110.11 47.9247 1109.66 48.6823 1109.03 49.3359C1108.4 49.9821 1107.62 50.4871 1106.69 50.851C1105.77 51.2075 1104.72 51.3858 1103.56 51.3858ZM1135.59 37.7494L1133.23 38.4179C1133.08 38.0243 1132.86 37.6418 1132.57 37.2704C1132.29 36.8916 1131.91 36.5797 1131.42 36.3346C1130.93 36.0895 1130.3 35.9669 1129.53 35.9669C1128.49 35.9669 1127.61 36.2083 1126.91 36.6911C1126.22 37.1664 1125.88 37.7717 1125.88 38.507C1125.88 39.1606 1126.12 39.6768 1126.59 40.0556C1127.07 40.4344 1127.81 40.75 1128.82 41.0026L1131.36 41.6265C1132.89 41.9978 1134.03 42.566 1134.78 43.331C1135.53 44.0886 1135.91 45.0652 1135.91 46.261C1135.91 47.2414 1135.62 48.1178 1135.06 48.8903C1134.5 49.6627 1133.72 50.2717 1132.72 50.7174C1131.72 51.163 1130.55 51.3858 1129.22 51.3858C1127.48 51.3858 1126.03 51.007 1124.89 50.2494C1123.74 49.4919 1123.02 48.3852 1122.71 46.9295L1125.21 46.3056C1125.45 47.2266 1125.9 47.9173 1126.56 48.3778C1127.23 48.8383 1128.1 49.0685 1129.18 49.0685C1130.4 49.0685 1131.37 48.8086 1132.09 48.2887C1132.82 47.7613 1133.19 47.13 1133.19 46.3947C1133.19 45.8005 1132.98 45.3029 1132.56 44.9019C1132.15 44.4934 1131.51 44.1888 1130.65 43.9883L1127.79 43.3199C1126.23 42.9485 1125.08 42.3729 1124.34 41.593C1123.61 40.8057 1123.25 39.8216 1123.25 38.6407C1123.25 37.6752 1123.52 36.821 1124.06 36.0783C1124.61 35.3356 1125.36 34.7526 1126.3 34.3292C1127.25 33.9059 1128.33 33.6942 1129.53 33.6942C1131.23 33.6942 1132.56 34.0656 1133.52 34.8083C1134.49 35.551 1135.18 36.5314 1135.59 37.7494ZM1150.65 44.0329V33.917H1153.28V51.0293H1150.65V48.1327H1150.47C1150.07 49.0017 1149.44 49.7407 1148.6 50.3497C1147.75 50.9513 1146.68 51.2521 1145.39 51.2521C1144.32 51.2521 1143.37 51.0182 1142.54 50.5502C1141.7 50.0749 1141.05 49.3619 1140.58 48.4112C1140.1 47.4531 1139.86 46.2462 1139.86 44.7904V33.917H1142.49V44.6122C1142.49 45.86 1142.84 46.8552 1143.54 47.5979C1144.24 48.3406 1145.14 48.712 1146.24 48.712C1146.89 48.712 1147.55 48.5449 1148.23 48.2107C1148.91 47.8764 1149.48 47.364 1149.95 46.6732C1150.41 45.9825 1150.65 45.1024 1150.65 44.0329ZM1163.13 51.4304C1162.04 51.4304 1161.06 51.2261 1160.18 50.8176C1159.29 50.4017 1158.59 49.8038 1158.07 49.024C1157.55 48.2367 1157.29 47.286 1157.29 46.1719C1157.29 45.1915 1157.48 44.3968 1157.87 43.7878C1158.26 43.1713 1158.77 42.6885 1159.42 42.3395C1160.06 41.9904 1160.78 41.7304 1161.56 41.5596C1162.34 41.3814 1163.14 41.2402 1163.93 41.1363C1164.97 41.0026 1165.81 40.9023 1166.46 40.8355C1167.11 40.7612 1167.59 40.6386 1167.88 40.4678C1168.19 40.297 1168.34 39.9999 1168.34 39.5765V39.4874C1168.34 38.3882 1168.04 37.5341 1167.44 36.925C1166.84 36.316 1165.94 36.0115 1164.73 36.0115C1163.48 36.0115 1162.49 36.2863 1161.78 36.8359C1161.07 37.3855 1160.57 37.9723 1160.28 38.5962L1157.78 37.7049C1158.23 36.6651 1158.82 35.8555 1159.56 35.2762C1160.31 34.6894 1161.13 34.2809 1162.01 34.0507C1162.9 33.813 1163.78 33.6942 1164.64 33.6942C1165.19 33.6942 1165.82 33.761 1166.54 33.8947C1167.26 34.021 1167.95 34.2847 1168.62 34.6857C1169.3 35.0868 1169.86 35.6921 1170.3 36.5017C1170.75 37.3112 1170.97 38.3956 1170.97 39.7548V51.0293H1168.34V48.712H1168.21C1168.03 49.0834 1167.73 49.4807 1167.32 49.9041C1166.9 50.3274 1166.35 50.6876 1165.66 50.9847C1164.97 51.2818 1164.12 51.4304 1163.13 51.4304ZM1163.53 49.0685C1164.57 49.0685 1165.44 48.8643 1166.16 48.4558C1166.88 48.0473 1167.42 47.5199 1167.78 46.8738C1168.16 46.2276 1168.34 45.548 1168.34 44.835V42.4286C1168.23 42.5623 1167.99 42.6848 1167.61 42.7962C1167.23 42.9002 1166.8 42.9931 1166.31 43.0748C1165.83 43.149 1165.36 43.2159 1164.9 43.2753C1164.45 43.3273 1164.08 43.3718 1163.8 43.409C1163.11 43.4981 1162.47 43.6429 1161.88 43.8435C1161.29 44.0366 1160.82 44.33 1160.45 44.7236C1160.1 45.1098 1159.92 45.6371 1159.92 46.3056C1159.92 47.2191 1160.26 47.9099 1160.93 48.3778C1161.62 48.8383 1162.48 49.0685 1163.53 49.0685ZM1198.59 33.917L1192.26 51.0293H1189.58L1183.26 33.917H1186.11L1190.83 47.5534H1191.01L1195.73 33.917H1198.59ZM1206.57 51.4304C1205.49 51.4304 1204.5 51.2261 1203.62 50.8176C1202.74 50.4017 1202.03 49.8038 1201.51 49.024C1200.99 48.2367 1200.73 47.286 1200.73 46.1719C1200.73 45.1915 1200.93 44.3968 1201.31 43.7878C1201.7 43.1713 1202.22 42.6885 1202.86 42.3395C1203.51 41.9904 1204.22 41.7304 1205 41.5596C1205.79 41.3814 1206.58 41.2402 1207.37 41.1363C1208.41 41.0026 1209.26 40.9023 1209.9 40.8355C1210.56 40.7612 1211.03 40.6386 1211.33 40.4678C1211.63 40.297 1211.79 39.9999 1211.79 39.5765V39.4874C1211.79 38.3882 1211.48 37.5341 1210.88 36.925C1210.29 36.316 1209.39 36.0115 1208.18 36.0115C1206.92 36.0115 1205.94 36.2863 1205.22 36.8359C1204.51 37.3855 1204.01 37.9723 1203.72 38.5962L1201.22 37.7049C1201.67 36.6651 1202.26 35.8555 1203.01 35.2762C1203.76 34.6894 1204.57 34.2809 1205.46 34.0507C1206.35 33.813 1207.22 33.6942 1208.09 33.6942C1208.64 33.6942 1209.27 33.761 1209.98 33.8947C1210.7 34.021 1211.4 34.2847 1212.06 34.6857C1212.74 35.0868 1213.3 35.6921 1213.75 36.5017C1214.19 37.3112 1214.41 38.3956 1214.41 39.7548V51.0293H1211.79V48.712H1211.65C1211.47 49.0834 1211.18 49.4807 1210.76 49.9041C1210.34 50.3274 1209.79 50.6876 1209.1 50.9847C1208.41 51.2818 1207.57 51.4304 1206.57 51.4304ZM1206.97 49.0685C1208.01 49.0685 1208.89 48.8643 1209.6 48.4558C1210.32 48.0473 1210.86 47.5199 1211.23 46.8738C1211.6 46.2276 1211.79 45.548 1211.79 44.835V42.4286C1211.67 42.5623 1211.43 42.6848 1211.05 42.7962C1210.68 42.9002 1210.25 42.9931 1209.76 43.0748C1209.27 43.149 1208.8 43.2159 1208.34 43.2753C1207.89 43.3273 1207.52 43.3718 1207.24 43.409C1206.56 43.4981 1205.92 43.6429 1205.32 43.8435C1204.74 44.0366 1204.26 44.33 1203.9 44.7236C1203.54 45.1098 1203.36 45.6371 1203.36 46.3056C1203.36 47.2191 1203.7 47.9099 1204.38 48.3778C1205.06 48.8383 1205.93 49.0685 1206.97 49.0685ZM1226.12 57.8029C1224.85 57.8029 1223.76 57.6395 1222.85 57.3127C1221.93 56.9933 1221.17 56.57 1220.56 56.0427C1219.96 55.5228 1219.48 54.9657 1219.12 54.3715L1221.22 52.901C1221.46 53.2129 1221.76 53.5694 1222.12 53.9705C1222.48 54.379 1222.98 54.7318 1223.61 55.0288C1224.25 55.3334 1225.09 55.4856 1226.12 55.4856C1227.5 55.4856 1228.64 55.1514 1229.54 54.4829C1230.44 53.8145 1230.89 52.7673 1230.89 51.3412V47.8653H1230.67C1230.47 48.1772 1230.2 48.5635 1229.84 49.024C1229.49 49.477 1228.99 49.8818 1228.33 50.2383C1227.67 50.5874 1226.79 50.7619 1225.67 50.7619C1224.29 50.7619 1223.05 50.4351 1221.95 49.7815C1220.86 49.1279 1220 48.1772 1219.36 46.9295C1218.73 45.6817 1218.41 44.1666 1218.41 42.384C1218.41 40.6312 1218.72 39.1049 1219.34 37.8052C1219.95 36.498 1220.81 35.4879 1221.91 34.7749C1223.01 34.0544 1224.28 33.6942 1225.72 33.6942C1226.83 33.6942 1227.72 33.8799 1228.37 34.2512C1229.03 34.6152 1229.54 35.0311 1229.89 35.499C1230.24 35.9595 1230.52 36.3383 1230.71 36.6354H1230.98V33.917H1233.52V51.5195C1233.52 52.9901 1233.18 54.1859 1232.52 55.1068C1231.85 56.0352 1230.96 56.7148 1229.84 57.1456C1228.73 57.5838 1227.49 57.8029 1226.12 57.8029ZM1226.03 48.4001C1227.09 48.4001 1227.98 48.1587 1228.71 47.6759C1229.43 47.1931 1229.99 46.4987 1230.37 45.5926C1230.74 44.6865 1230.93 43.6021 1230.93 42.3395C1230.93 41.1065 1230.75 40.0185 1230.38 39.0752C1230 38.132 1229.46 37.3929 1228.73 36.8582C1228 36.3234 1227.1 36.056 1226.03 36.056C1224.92 36.056 1223.99 36.3383 1223.25 36.9027C1222.51 37.4672 1221.96 38.2248 1221.59 39.1755C1221.22 40.1262 1221.04 41.1808 1221.04 42.3395C1221.04 43.5278 1221.23 44.5788 1221.6 45.4923C1221.98 46.3984 1222.53 47.1114 1223.27 47.6313C1224.01 48.1438 1224.93 48.4001 1226.03 48.4001ZM1243.37 51.4304C1242.28 51.4304 1241.3 51.2261 1240.41 50.8176C1239.53 50.4017 1238.83 49.8038 1238.31 49.024C1237.79 48.2367 1237.53 47.286 1237.53 46.1719C1237.53 45.1915 1237.72 44.3968 1238.11 43.7878C1238.49 43.1713 1239.01 42.6885 1239.66 42.3395C1240.3 41.9904 1241.02 41.7304 1241.8 41.5596C1242.58 41.3814 1243.37 41.2402 1244.17 41.1363C1245.21 41.0026 1246.05 40.9023 1246.7 40.8355C1247.35 40.7612 1247.83 40.6386 1248.12 40.4678C1248.43 40.297 1248.58 39.9999 1248.58 39.5765V39.4874C1248.58 38.3882 1248.28 37.5341 1247.68 36.925C1247.08 36.316 1246.18 36.0115 1244.97 36.0115C1243.72 36.0115 1242.73 36.2863 1242.02 36.8359C1241.31 37.3855 1240.8 37.9723 1240.51 38.5962L1238.02 37.7049C1238.46 36.6651 1239.06 35.8555 1239.8 35.2762C1240.55 34.6894 1241.37 34.2809 1242.25 34.0507C1243.14 33.813 1244.02 33.6942 1244.88 33.6942C1245.43 33.6942 1246.06 33.761 1246.78 33.8947C1247.5 34.021 1248.19 34.2847 1248.86 34.6857C1249.53 35.0868 1250.1 35.6921 1250.54 36.5017C1250.99 37.3112 1251.21 38.3956 1251.21 39.7548V51.0293H1248.58V48.712H1248.45C1248.27 49.0834 1247.97 49.4807 1247.56 49.9041C1247.14 50.3274 1246.59 50.6876 1245.9 50.9847C1245.2 51.2818 1244.36 51.4304 1243.37 51.4304ZM1243.77 49.0685C1244.81 49.0685 1245.68 48.8643 1246.4 48.4558C1247.12 48.0473 1247.66 47.5199 1248.02 46.8738C1248.39 46.2276 1248.58 45.548 1248.58 44.835V42.4286C1248.47 42.5623 1248.22 42.6848 1247.85 42.7962C1247.47 42.9002 1247.04 42.9931 1246.55 43.0748C1246.07 43.149 1245.6 43.2159 1245.14 43.2753C1244.68 43.3273 1244.32 43.3718 1244.03 43.409C1243.35 43.4981 1242.71 43.6429 1242.12 43.8435C1241.53 44.0366 1241.06 44.33 1240.69 44.7236C1240.34 45.1098 1240.16 45.6371 1240.16 46.3056C1240.16 47.2191 1240.5 47.9099 1241.17 48.3778C1241.86 48.8383 1242.72 49.0685 1243.77 49.0685Z" fill="white"/>
<circle cx="1287.69" cy="40.0292" r="18.5097" fill="white"/>
<path d="M1286.3 45.1457L1291.87 39.5777M1291.87 39.5777L1286.3 34.0098M1291.87 39.5777H1275.17M1277.28 46.5377C1279.52 49.8951 1283.35 52.1056 1287.69 52.1056C1294.61 52.1056 1300.22 46.4967 1300.22 39.5777C1300.22 32.6587 1294.61 27.0498 1287.69 27.0498C1283.35 27.0498 1279.52 29.2603 1277.28 32.6178" stroke="url(#paint1_linear_0_1)" stroke-width="2.78398" stroke-linecap="round" stroke-linejoin="round"/>
<path d="M60.6418 28.0488V30.4439H52.4299V52H50.0348V30.4439H41.8401V28.0488H60.6418ZM61.1695 52V34.892H63.5646V37.2529C64.1691 36.3861 64.956 35.6961 65.9255 35.1828C66.8949 34.6696 67.9499 34.413 69.0905 34.413C69.752 34.413 70.3907 34.4985 71.0066 34.6696L70.0314 37.0476C69.5524 36.8994 69.0848 36.8252 68.6285 36.8252C67.7047 36.8252 66.855 37.0533 66.0794 37.5095C65.3153 37.9657 64.7051 38.5759 64.2489 39.3401C63.7927 40.1042 63.5646 40.9539 63.5646 41.8892V52H61.1695ZM86.3257 34.892H88.7208V52H86.3257L86.2401 48.8179C85.6813 49.9014 84.9 50.7796 83.8963 51.4525C82.8927 52.1141 81.6951 52.4448 80.3037 52.4448C79.0491 52.4448 77.8743 52.211 76.7794 51.7434C75.6845 51.2644 74.7208 50.6086 73.8882 49.776C73.0556 48.9434 72.4055 47.9796 71.9379 46.8847C71.4702 45.7898 71.2364 44.6151 71.2364 43.3605C71.2364 42.1287 71.4645 40.9711 71.9208 39.8875C72.3884 38.804 73.0271 37.8517 73.8369 37.0305C74.658 36.2093 75.6047 35.5706 76.6768 35.1144C77.7603 34.6468 78.9179 34.413 80.1497 34.413C81.5754 34.413 82.8185 34.7551 83.8792 35.4395C84.9399 36.1124 85.7839 36.9963 86.4112 38.0912L86.3257 34.892ZM80.2523 50.1181C81.4727 50.1181 82.522 49.8216 83.4002 49.2285C84.2784 48.624 84.9513 47.8142 85.419 46.7992C85.898 45.7841 86.1375 44.6664 86.1375 43.446C86.1375 42.1914 85.898 41.0623 85.419 40.0586C84.9399 39.0436 84.2613 38.2395 83.3831 37.6464C82.5049 37.0533 81.4613 36.7568 80.2523 36.7568C79.0434 36.7568 77.9371 37.059 76.9334 37.6635C75.9411 38.2566 75.1485 39.0607 74.5554 40.0757C73.9737 41.0908 73.6829 42.2142 73.6829 43.446C73.6829 44.6892 73.9851 45.8183 74.5896 46.8334C75.1941 47.8371 75.9925 48.6354 76.9847 49.2285C77.9884 49.8216 79.0776 50.1181 80.2523 50.1181ZM100.864 34.413C102.529 34.413 104.04 34.8179 105.397 35.6277C106.766 36.4374 107.855 37.5266 108.665 38.8953C109.475 40.2525 109.88 41.7637 109.88 43.4289C109.88 44.6721 109.646 45.8411 109.178 46.936C108.711 48.0195 108.06 48.9776 107.228 49.8102C106.407 50.6314 105.449 51.2758 104.354 51.7434C103.27 52.211 102.107 52.4448 100.864 52.4448C99.4495 52.4448 98.2291 52.1084 97.2026 51.4354C96.1761 50.7625 95.3664 49.8843 94.7733 48.8008V52H92.3782V26.338H94.7733V38.057C95.3664 36.9735 96.1761 36.0953 97.2026 35.4224C98.2291 34.7494 99.4495 34.413 100.864 34.413ZM100.847 50.101C102.067 50.101 103.173 49.8045 104.166 49.2114C105.158 48.6069 105.951 47.7971 106.544 46.7821C107.137 45.767 107.433 44.6493 107.433 43.4289C107.433 42.1743 107.131 41.0452 106.526 40.0415C105.922 39.0264 105.118 38.2224 104.114 37.6293C103.122 37.0362 102.033 36.7397 100.847 36.7397C99.6377 36.7397 98.5884 37.0419 97.6988 37.6464C96.8205 38.2509 96.1419 39.0607 95.6629 40.0757C95.1953 41.0908 94.9615 42.2085 94.9615 43.4289C94.9615 44.6721 95.201 45.8012 95.68 46.8163C96.159 47.8199 96.8377 48.6183 97.7159 49.2114C98.6055 49.8045 99.6491 50.101 100.847 50.101ZM126.69 34.892H129.085V52H126.69L126.604 48.8179C126.045 49.9014 125.264 50.7796 124.261 51.4525C123.257 52.1141 122.059 52.4448 120.668 52.4448C119.413 52.4448 118.238 52.211 117.144 51.7434C116.049 51.2644 115.085 50.6086 114.252 49.776C113.42 48.9434 112.77 47.9796 112.302 46.8847C111.834 45.7898 111.601 44.6151 111.601 43.3605C111.601 42.1287 111.829 40.9711 112.285 39.8875C112.753 38.804 113.391 37.8517 114.201 37.0305C115.022 36.2093 115.969 35.5706 117.041 35.1144C118.124 34.6468 119.282 34.413 120.514 34.413C121.94 34.413 123.183 34.7551 124.243 35.4395C125.304 36.1124 126.148 36.9963 126.775 38.0912L126.69 34.892ZM120.617 50.1181C121.837 50.1181 122.886 49.8216 123.764 49.2285C124.643 48.624 125.315 47.8142 125.783 46.7992C126.262 45.7841 126.502 44.6664 126.502 43.446C126.502 42.1914 126.262 41.0623 125.783 40.0586C125.304 39.0436 124.625 38.2395 123.747 37.6464C122.869 37.0533 121.825 36.7568 120.617 36.7568C119.408 36.7568 118.301 37.059 117.298 37.6635C116.305 38.2566 115.513 39.0607 114.92 40.0757C114.338 41.0908 114.047 42.2142 114.047 43.446C114.047 44.6892 114.349 45.8183 114.954 46.8334C115.558 47.8371 116.357 48.6354 117.349 49.2285C118.353 49.8216 119.442 50.1181 120.617 50.1181ZM132.742 52V26.338H135.137V52H132.742ZM154.176 41.4102V52H151.781V41.8892C151.781 40.9539 151.553 40.1042 151.097 39.3401C150.641 38.5759 150.03 37.9657 149.266 37.5095C148.502 37.0533 147.652 36.8252 146.717 36.8252C145.793 36.8252 144.944 37.0533 144.168 37.5095C143.404 37.9657 142.794 38.5759 142.337 39.3401C141.881 40.1042 141.653 40.9539 141.653 41.8892V52H139.258V26.338H141.653V37.2529C142.258 36.3861 143.045 35.6961 144.014 35.1828C144.984 34.6696 146.039 34.413 147.179 34.413C148.468 34.413 149.643 34.7266 150.703 35.3539C151.764 35.9812 152.608 36.8252 153.235 37.8859C153.863 38.9466 154.176 40.1214 154.176 41.4102ZM164.796 52.4448C163.222 52.4448 161.785 52.0399 160.485 51.2301C159.196 50.4204 158.164 49.3369 157.388 47.9796C156.624 46.611 156.242 45.0998 156.242 43.446C156.242 42.1914 156.464 41.0224 156.909 39.9389C157.354 38.844 157.964 37.8859 158.74 37.0647C159.526 36.2321 160.439 35.582 161.477 35.1144C162.515 34.6468 163.621 34.413 164.796 34.413C166.062 34.413 167.225 34.6639 168.286 35.1657C169.358 35.6676 170.276 36.369 171.04 37.27C171.816 38.171 172.397 39.226 172.785 40.435C173.184 41.644 173.35 42.9499 173.281 44.3527H158.774C158.911 45.4362 159.253 46.4057 159.8 47.2611C160.359 48.1165 161.066 48.7951 161.922 49.2969C162.788 49.7874 163.746 50.0383 164.796 50.0497C165.936 50.0497 166.963 49.7532 167.875 49.1601C168.799 48.567 169.54 47.7515 170.099 46.7136L172.529 47.2782C171.844 48.7951 170.812 50.0383 169.432 51.0077C168.052 51.9658 166.507 52.4448 164.796 52.4448ZM158.705 42.4195H170.869C170.789 41.3588 170.464 40.3894 169.894 39.5112C169.335 38.6216 168.611 37.9144 167.721 37.3898C166.832 36.8537 165.856 36.5857 164.796 36.5857C163.735 36.5857 162.766 36.848 161.887 37.3727C161.009 37.8859 160.291 38.5873 159.732 39.477C159.173 40.3552 158.831 41.336 158.705 42.4195ZM195.687 52.4448C194.067 52.4448 192.545 52.1255 191.119 51.4868C189.693 50.8367 188.439 49.947 187.355 48.8179C186.283 47.6774 185.439 46.3544 184.823 44.8489C184.219 43.3434 183.917 41.7352 183.917 40.0244C183.917 38.3136 184.219 36.7055 184.823 35.2C185.439 33.6945 186.283 32.3771 187.355 31.248C188.439 30.1075 189.693 29.2179 191.119 28.5792C192.545 27.9291 194.067 27.604 195.687 27.604C197.626 27.604 199.411 28.0545 201.042 28.9555C202.673 29.8566 204.024 31.0541 205.096 32.5482L202.975 33.6945C202.131 32.5653 201.059 31.67 199.759 31.0085C198.47 30.3356 197.113 29.9991 195.687 29.9991C194.375 29.9991 193.149 30.2672 192.009 30.8032C190.88 31.3278 189.887 32.0521 189.032 32.9759C188.176 33.8997 187.509 34.9661 187.03 36.1751C186.551 37.3841 186.312 38.6672 186.312 40.0244C186.312 41.4045 186.551 42.699 187.03 43.9079C187.521 45.1169 188.194 46.1833 189.049 47.1071C189.916 48.0309 190.914 48.7552 192.043 49.2798C193.183 49.7931 194.398 50.0497 195.687 50.0497C197.17 50.0497 198.544 49.7132 199.81 49.0403C201.087 48.356 202.142 47.4664 202.975 46.3715L205.096 47.5177C204.024 49.0118 202.673 50.2094 201.042 51.1104C199.411 52 197.626 52.4448 195.687 52.4448ZM215.184 52.4448C213.61 52.4448 212.173 52.0399 210.873 51.2301C209.584 50.4204 208.552 49.3369 207.776 47.9796C207.012 46.611 206.63 45.0998 206.63 43.446C206.63 42.1914 206.853 41.0224 207.297 39.9389C207.742 38.844 208.352 37.8859 209.128 37.0647C209.915 36.2321 210.827 35.582 211.865 35.1144C212.903 34.6468 214.009 34.413 215.184 34.413C216.758 34.413 218.189 34.8179 219.478 35.6277C220.778 36.4374 221.811 37.5266 222.575 38.8953C223.35 40.2639 223.738 41.7808 223.738 43.446C223.738 44.6892 223.516 45.8525 223.071 46.936C222.626 48.0195 222.01 48.9776 221.223 49.8102C220.448 50.6314 219.541 51.2758 218.503 51.7434C217.477 52.211 216.37 52.4448 215.184 52.4448ZM215.184 50.0497C216.347 50.0497 217.391 49.7474 218.315 49.143C219.25 48.5271 219.986 47.7173 220.522 46.7136C221.069 45.71 221.343 44.6208 221.343 43.446C221.343 42.2484 221.069 41.1478 220.522 40.1442C219.974 39.1291 219.233 38.3193 218.298 37.7148C217.374 37.1103 216.336 36.8081 215.184 36.8081C214.021 36.8081 212.971 37.1161 212.036 37.7319C211.112 38.3364 210.377 39.1405 209.829 40.1442C209.293 41.1478 209.025 42.2484 209.025 43.446C209.025 44.6778 209.305 45.7955 209.864 46.7992C210.422 47.7914 211.169 48.5841 212.105 49.1772C213.04 49.7589 214.066 50.0497 215.184 50.0497ZM241.554 41.4102V52H239.159V41.8892C239.159 40.9539 238.931 40.1042 238.474 39.3401C238.018 38.5759 237.408 37.9657 236.644 37.5095C235.88 37.0533 235.03 36.8252 234.095 36.8252C233.171 36.8252 232.321 37.0533 231.546 37.5095C230.782 37.9657 230.171 38.5759 229.715 39.3401C229.259 40.1042 229.031 40.9539 229.031 41.8892V52H226.636V34.892H229.031V37.2529C229.635 36.3861 230.422 35.6961 231.392 35.1828C232.361 34.6696 233.416 34.413 234.557 34.413C235.846 34.413 237.02 34.7266 238.081 35.3539C239.142 35.9812 239.986 36.8252 240.613 37.8859C241.24 38.9466 241.554 40.1214 241.554 41.4102ZM252.173 52.4448C250.6 52.4448 249.162 52.0399 247.862 51.2301C246.573 50.4204 245.541 49.3369 244.766 47.9796C244.002 46.611 243.619 45.0998 243.619 43.446C243.619 42.1914 243.842 41.0224 244.287 39.9389C244.731 38.844 245.342 37.8859 246.117 37.0647C246.904 36.2321 247.817 35.582 248.854 35.1144C249.892 34.6468 250.999 34.413 252.173 34.413C253.747 34.413 255.179 34.8179 256.468 35.6277C257.768 36.4374 258.8 37.5266 259.564 38.8953C260.34 40.2639 260.727 41.7808 260.727 43.446C260.727 44.6892 260.505 45.8525 260.06 46.936C259.615 48.0195 259 48.9776 258.213 49.8102C257.437 50.6314 256.53 51.2758 255.492 51.7434C254.466 52.211 253.36 52.4448 252.173 52.4448ZM252.173 50.0497C253.337 50.0497 254.38 49.7474 255.304 49.143C256.239 48.5271 256.975 47.7173 257.511 46.7136C258.059 45.71 258.332 44.6208 258.332 43.446C258.332 42.2484 258.059 41.1478 257.511 40.1442C256.964 39.1291 256.222 38.3193 255.287 37.7148C254.363 37.1103 253.325 36.8081 252.173 36.8081C251.01 36.8081 249.961 37.1161 249.026 37.7319C248.102 38.3364 247.366 39.1405 246.819 40.1442C246.283 41.1478 246.015 42.2484 246.015 43.446C246.015 44.6778 246.294 45.7955 246.853 46.7992C247.412 47.7914 248.159 48.5841 249.094 49.1772C250.029 49.7589 251.056 50.0497 252.173 50.0497ZM268.945 52.3251C268.01 52.3022 267.097 52.1312 266.208 51.8118C265.318 51.4925 264.542 51.0591 263.881 50.5116C263.219 49.9641 262.746 49.3426 262.461 48.6468L264.531 47.7572C264.714 48.202 265.05 48.6126 265.54 48.989C266.042 49.354 266.612 49.6505 267.251 49.8786C267.89 50.0953 268.523 50.2037 269.15 50.2037C269.846 50.2037 270.496 50.0896 271.1 49.8615C271.705 49.6334 272.195 49.3083 272.572 48.8863C272.96 48.4529 273.153 47.9454 273.153 47.3637C273.153 46.7364 272.948 46.246 272.538 45.8924C272.127 45.5275 271.608 45.2423 270.981 45.037C270.353 44.8203 269.709 44.6151 269.048 44.4212C267.839 44.0904 266.772 43.7254 265.848 43.3263C264.925 42.9271 264.2 42.4195 263.676 41.8036C263.162 41.1763 262.906 40.3723 262.906 39.3914C262.906 38.3535 263.197 37.4582 263.778 36.7055C264.371 35.9413 265.141 35.3539 266.088 34.9433C267.046 34.5213 268.067 34.3103 269.15 34.3103C270.542 34.3103 271.808 34.6126 272.948 35.2171C274.1 35.8215 274.933 36.6256 275.446 37.6293L273.513 38.7755C273.307 38.3079 272.982 37.903 272.538 37.5609C272.093 37.2187 271.585 36.9507 271.015 36.7568C270.456 36.5629 269.886 36.4602 269.304 36.4488C268.574 36.4374 267.896 36.5458 267.268 36.7739C266.641 36.9906 266.133 37.3156 265.746 37.749C265.369 38.1824 265.181 38.7128 265.181 39.3401C265.181 39.9674 265.369 40.4464 265.746 40.7772C266.122 41.0965 266.63 41.3588 267.268 41.5641C267.918 41.758 268.648 41.9861 269.458 42.2484C270.496 42.5792 271.471 42.9556 272.384 43.3776C273.296 43.7996 274.032 44.3242 274.591 44.9515C275.149 45.5788 275.423 46.3715 275.412 47.3295C275.412 48.356 275.104 49.2513 274.488 50.0155C273.872 50.7796 273.074 51.367 272.093 51.7776C271.112 52.1768 270.063 52.3593 268.945 52.3251ZM290.442 47.7059L292.581 48.8692C291.805 49.9527 290.819 50.8195 289.621 51.4697C288.435 52.1198 287.146 52.4448 285.755 52.4448C284.181 52.4448 282.744 52.0399 281.443 51.2301C280.155 50.4204 279.122 49.3369 278.347 47.9796C277.583 46.611 277.201 45.0998 277.201 43.446C277.201 42.1914 277.423 41.0224 277.868 39.9389C278.313 38.844 278.923 37.8859 279.698 37.0647C280.485 36.2321 281.398 35.582 282.436 35.1144C283.473 34.6468 284.58 34.413 285.755 34.413C287.146 34.413 288.435 34.738 289.621 35.3881C290.819 36.0382 291.805 36.9108 292.581 38.0057L290.442 39.1519C289.849 38.3992 289.136 37.8232 288.304 37.424C287.471 37.0134 286.621 36.8081 285.755 36.8081C284.603 36.8081 283.559 37.1161 282.624 37.7319C281.689 38.3364 280.947 39.1405 280.4 40.1442C279.864 41.1478 279.596 42.2484 279.596 43.446C279.596 44.6436 279.869 45.7442 280.417 46.7478C280.976 47.7515 281.723 48.5556 282.658 49.1601C283.593 49.7532 284.625 50.0497 285.755 50.0497C286.69 50.0497 287.568 49.833 288.389 49.3996C289.21 48.9662 289.895 48.4016 290.442 47.7059ZM302.963 52.4448C301.389 52.4448 299.952 52.0399 298.652 51.2301C297.363 50.4204 296.331 49.3369 295.555 47.9796C294.791 46.611 294.409 45.0998 294.409 43.446C294.409 42.1914 294.631 41.0224 295.076 39.9389C295.521 38.844 296.131 37.8859 296.907 37.0647C297.694 36.2321 298.606 35.582 299.644 35.1144C300.682 34.6468 301.788 34.413 302.963 34.413C304.537 34.413 305.968 34.8179 307.257 35.6277C308.557 36.4374 309.589 37.5266 310.353 38.8953C311.129 40.2639 311.517 41.7808 311.517 43.446C311.517 44.6892 311.294 45.8525 310.85 46.936C310.405 48.0195 309.789 48.9776 309.002 49.8102C308.226 50.6314 307.32 51.2758 306.282 51.7434C305.255 52.211 304.149 52.4448 302.963 52.4448ZM302.963 50.0497C304.126 50.0497 305.17 49.7474 306.094 49.143C307.029 48.5271 307.764 47.7173 308.3 46.7136C308.848 45.71 309.122 44.6208 309.122 43.446C309.122 42.2484 308.848 41.1478 308.3 40.1442C307.753 39.1291 307.012 38.3193 306.076 37.7148C305.153 37.1103 304.115 36.8081 302.963 36.8081C301.799 36.8081 300.75 37.1161 299.815 37.7319C298.891 38.3364 298.155 39.1405 297.608 40.1442C297.072 41.1478 296.804 42.2484 296.804 43.446C296.804 44.6778 297.083 45.7955 297.642 46.7992C298.201 47.7914 298.948 48.5841 299.883 49.1772C300.819 49.7589 301.845 50.0497 302.963 50.0497Z" fill="black"/>
<rect x="1" y="1" width="1327" height="77" rx="38.5" stroke="black" stroke-width="2"/>
<defs>
<linearGradient id="paint0_linear_0_1" x1="978" y1="40.0291" x2="1318" y2="40.0291" gradientUnits="userSpaceOnUse">
<stop/>
<stop offset="1" stop-color="#949494"/>
</linearGradient>
<linearGradient id="paint1_linear_0_1" x1="1287.69" y1="27.0498" x2="1287.69" y2="52.1056" gradientUnits="userSpaceOnUse">
<stop/>
<stop offset="1" stop-color="#666666"/>
</linearGradient>
</defs>
</svg>
