<svg width="83" height="83" viewBox="0 0 83 83" fill="none" xmlns="http://www.w3.org/2000/svg">
<rect x="0.2229" y="13.436" width="68.7604" height="68.7604" rx="7.90349" fill="#1E1E1E"/>
<path d="M34.6483 25.3034C23.057 25.6782 13.48 35.0677 12.8978 46.6524C12.6903 50.8285 13.6072 54.777 15.4008 58.2036L12.8844 69.467C12.7773 69.9756 13.2324 70.4307 13.7411 70.3236L25.0112 67.8072H25.0179C28.4243 69.5874 32.326 70.5043 36.4687 70.3169C48.0332 69.7815 57.4495 60.2782 57.8979 48.7136C58.4066 35.6098 47.7321 24.8751 34.6483 25.3034ZM35.3979 65.679C32.1186 65.679 29.0534 64.7956 26.4099 63.2497C26.1623 63.1091 25.9213 62.9619 25.6871 62.808L18.486 64.7287L20.4067 57.5276C18.5864 54.7302 17.5357 51.3973 17.5357 47.8169C17.5357 37.9655 25.5533 29.9547 35.3979 29.9547C45.2425 29.9547 53.2601 37.9722 53.2601 47.8169C53.2601 57.6615 45.2425 65.679 35.3979 65.679Z" fill="#D9D9D9"/>
<path d="M45.992 55.681C45.6775 56.1495 45.3562 56.5845 44.8342 57.1065C43.6898 58.2509 42.1037 58.8265 40.4908 58.6658C37.5997 58.3714 33.4972 56.7719 29.9702 53.2516C26.4433 49.7247 24.8438 45.6222 24.556 42.7311C24.3954 41.1182 24.971 39.5321 26.1154 38.3877C26.6374 37.8657 27.0724 37.5377 27.5409 37.2165C28.4042 36.6342 29.5821 37.0224 29.91 38.0062L31.0946 41.5599C31.4225 42.5303 31.2753 43.146 30.8537 43.5609L29.91 44.5113C29.4415 44.9797 29.3679 45.7025 29.7226 46.2647C30.2446 47.0812 31.2284 48.3929 33.0354 50.1999C34.8424 52.0068 36.1474 52.9906 36.9706 53.5126C37.5327 53.874 38.2555 53.7937 38.724 53.3252L39.6743 52.3816C40.0893 51.96 40.705 51.8127 41.6754 52.1407L45.2291 53.3252C46.2129 53.6532 46.601 54.8311 46.0054 55.6944L45.992 55.681Z" fill="#D9D9D9"/>
<rect x="55.5474" width="26.8719" height="26.8719" rx="5.59831" fill="#D9D9D9"/>
<path d="M72.046 15.56V10.3733M72.046 10.3733H66.8594M72.046 10.3733L65.1306 17.2888M63.056 23.0518H74.1208C75.4118 23.0518 76.0574 23.0518 76.5505 22.8006C76.9842 22.5796 77.3369 22.2269 77.558 21.7932C77.8091 21.3001 77.8091 20.6546 77.8091 19.3635V8.29865C77.8091 7.00763 77.8091 6.36211 77.558 5.86901C77.3369 5.43525 76.9842 5.0826 76.5505 4.86161C76.0574 4.61035 75.4118 4.61035 74.1208 4.61035H63.056C61.765 4.61035 61.1194 4.61035 60.6263 4.86161C60.1926 5.0826 59.8399 5.43525 59.6189 5.86901C59.3677 6.36211 59.3677 7.00762 59.3677 8.29865V19.3635C59.3677 20.6546 59.3677 21.3001 59.6189 21.7932C59.8399 22.2269 60.1926 22.5796 60.6263 22.8006C61.1194 23.0518 61.765 23.0518 63.056 23.0518Z" stroke="black" stroke-width="2.30519" stroke-linecap="round" stroke-linejoin="round"/>
</svg>
